<svg xmlns="http://www.w3.org/2000/svg" xmlns:xlink="http://www.w3.org/1999/xlink" version="1.1" x="0px" y="0px" viewBox="0 0 100 125" enable-background="new 0 0 100 100" xml:space="preserve"><path fill="#000000" d="M92.656,46.967L92.656,46.967l-0.031-1.311v-0.445c0-0.012-0.006-0.021-0.007-0.032  c0-0.012,0.006-0.022,0.005-0.034l-0.031-0.469l-0.031-0.469c-0.002-0.023-0.015-0.043-0.018-0.065s0.004-0.042,0-0.064  l-0.094-0.469c-0.003-0.014-0.012-0.023-0.016-0.036c-0.003-0.015,0.001-0.028-0.003-0.043l-0.106-0.372l-0.053-0.369  c-0.005-0.036-0.026-0.063-0.035-0.098c-0.008-0.032-0.002-0.065-0.014-0.097l-0.156-0.438c-0.003-0.009-0.01-0.014-0.014-0.022  c-0.003-0.009-0.001-0.018-0.005-0.026l-0.156-0.375c-0.002-0.006-0.007-0.008-0.009-0.014c-0.003-0.005-0.002-0.01-0.004-0.016  l-0.156-0.344c0,0-0.001,0-0.001-0.001c-0.001-0.001,0-0.003-0.001-0.004l-0.188-0.406c-0.01-0.021-0.029-0.034-0.04-0.055  s-0.012-0.044-0.024-0.063l-0.219-0.344c-0.004-0.007-0.012-0.01-0.016-0.017c-0.004-0.006-0.005-0.014-0.009-0.02l-0.219-0.312  c-0.006-0.009-0.017-0.013-0.023-0.022c-0.007-0.009-0.008-0.02-0.015-0.029l-0.25-0.312l-0.25-0.312  c-0.013-0.016-0.03-0.021-0.044-0.036c-0.013-0.015-0.017-0.032-0.03-0.046l-0.281-0.281c-0.021-0.021-0.05-0.029-0.073-0.049  c-0.022-0.02-0.035-0.046-0.061-0.063l-0.284-0.198l-0.289-0.232c-0.009-0.007-0.021-0.008-0.029-0.015s-0.014-0.017-0.022-0.023  l-0.312-0.219c-0.017-0.011-0.035-0.013-0.052-0.022s-0.025-0.027-0.043-0.036l-0.344-0.188c-0.005-0.003-0.012-0.003-0.017-0.005  c-0.006-0.004-0.009-0.009-0.015-0.012l-0.375-0.188c-0.022-0.012-0.047-0.01-0.069-0.02c-0.022-0.009-0.038-0.027-0.062-0.035  l-0.375-0.125c-0.004-0.001-0.009,0-0.013-0.001s-0.006-0.005-0.01-0.005l-0.406-0.125l-0.406-0.125  c-0.026-0.008-0.052-0.002-0.078-0.008s-0.047-0.023-0.074-0.027l-0.396-0.057l-0.41-0.088c-0.037-0.008-0.071,0.003-0.107-0.001  c-0.035-0.004-0.066-0.021-0.103-0.021h-0.469H84.75h-0.469c-0.011,0-0.02,0.006-0.031,0.006c-0.011,0.001-0.021-0.005-0.031-0.004  l-0.5,0.031c-0.02,0.001-0.035,0.012-0.055,0.015c-0.02,0.002-0.037-0.005-0.057-0.001l-0.531,0.094l-0.531,0.094  c-0.01,0.001-0.017,0.008-0.026,0.01s-0.02-0.002-0.029,0.001l-0.531,0.125c-0.012,0.003-0.021,0.012-0.032,0.015  c-0.011,0.003-0.021,0-0.032,0.004l-0.335,0.103l-0.336,0.052c-0.02,0.003-0.035,0.016-0.054,0.02  c-0.02,0.004-0.038-0.001-0.057,0.004l-0.258,0.07l-0.258,0.023c-0.019,0.002-0.034,0.013-0.052,0.016  c-0.019,0.002-0.035-0.004-0.054,0l-0.263,0.053l-0.217,0.021H79.75h-0.229l-0.155-0.018l-0.187-0.047  c-0.021-0.005-0.041,0.002-0.062-0.002s-0.036-0.018-0.057-0.02l-0.11-0.014l-0.089-0.038c-0.025-0.011-0.052-0.008-0.078-0.017  s-0.046-0.027-0.073-0.035l-0.082-0.02l-0.043-0.029l-0.188-0.125c-0.027-0.018-0.059-0.021-0.087-0.035  c-0.026-0.016-0.045-0.039-0.074-0.052l-0.019-0.008c-0.005-0.005-0.01-0.008-0.015-0.013c-0.024-0.024-0.036-0.057-0.063-0.078  l-0.11-0.092l-0.062-0.078c-0.021-0.027-0.053-0.039-0.077-0.064c-0.024-0.024-0.036-0.057-0.063-0.078l-0.005-0.005  c-0.015-0.033-0.042-0.055-0.06-0.085c-0.018-0.032-0.022-0.068-0.044-0.099l-0.109-0.153l-0.029-0.059l-0.07-0.211  c-0.008-0.023-0.025-0.039-0.035-0.061c-0.009-0.023-0.007-0.048-0.019-0.07l-0.102-0.203l-0.05-0.134l-0.048-0.214  c-0.004-0.019-0.018-0.032-0.022-0.051c-0.004-0.016,0-0.032-0.006-0.049l-0.075-0.226l-0.106-0.478l-0.088-0.646  c-0.001-0.01-0.008-0.018-0.009-0.026c-0.002-0.008,0.002-0.015,0-0.022l-0.076-0.406v-0.504v-0.625v-0.645l0.06-0.744  c0.001-0.008-0.003-0.015-0.003-0.022c0.001-0.007,0.005-0.013,0.005-0.019l0.029-0.771l0.092-0.884l0.093-0.896l0.123-0.955  c0-0.001,0-0.001,0-0.003l0.151-0.998c0-0.002,0.001-0.003,0.001-0.004l0.156-1c0-0.002,0-0.004,0-0.006  c0,0,0.001-0.002,0.001-0.003l0.155-1.059l0.179-1.011l0.245-1.072c0.002-0.009-0.001-0.018,0.001-0.025  c0.002-0.011,0.008-0.018,0.01-0.028l0.183-1.067l0.244-1.066c0.001-0.006-0.001-0.012,0-0.018c0.002-0.008,0.007-0.014,0.009-0.021  l0.875-4.688c0.011-0.056-0.004-0.108-0.003-0.163c0.002-0.067,0.01-0.134-0.003-0.199c-0.012-0.063-0.039-0.119-0.062-0.179  s-0.041-0.12-0.076-0.175c-0.034-0.055-0.082-0.097-0.126-0.144s-0.082-0.095-0.135-0.133c-0.054-0.039-0.118-0.061-0.181-0.088  c-0.05-0.022-0.091-0.057-0.145-0.07l-6.688-1.75c-0.002-0.001-0.004,0-0.005-0.001c-0.002-0.001-0.004-0.002-0.006-0.003  l-1.25-0.312c-0.004,0-0.008,0.001-0.012,0s-0.007-0.004-0.011-0.005l-1.25-0.281c-0.006-0.001-0.011,0.001-0.016-0.001  c-0.005,0-0.009-0.004-0.014-0.005l-1.125-0.219l-1.125-0.219c-0.013-0.003-0.024,0.002-0.037,0s-0.023-0.011-0.036-0.012  l-1.062-0.125l0,0l-0.958-0.124c-0.005,0-0.009,0.002-0.014,0.002c-0.006-0.001-0.01-0.004-0.015-0.005l-0.938-0.094  c-0.018-0.001-0.033,0.006-0.051,0.005c-0.017-0.001-0.031-0.01-0.049-0.01h-0.4l-0.403-0.029c-0.013,0-0.023,0.006-0.035,0.006  c-0.013-0.001-0.023-0.008-0.036-0.008h-0.406h-0.406c-0.016,0-0.029,0.008-0.045,0.01c-0.016,0-0.03-0.008-0.046-0.006  l-0.301,0.027h-0.327c-0.017,0-0.029,0.008-0.046,0.01c-0.016,0-0.029-0.007-0.045-0.006l-0.344,0.031  c-0.035,0.004-0.063,0.022-0.097,0.029c-0.033,0.006-0.066-0.001-0.1,0.009l-0.228,0.068l-0.189,0.021  c-0.042,0.006-0.076,0.028-0.116,0.037c-0.042,0.01-0.084,0.006-0.125,0.021l-0.188,0.07l-0.209,0.046  c-0.031,0.008-0.055,0.028-0.085,0.038s-0.062,0.007-0.092,0.02l-0.219,0.094c-0.009,0.004-0.015,0.013-0.023,0.017  c-0.01,0.004-0.021,0.003-0.03,0.008l-0.187,0.094l-0.12,0.039c-0.011,0.004-0.017,0.012-0.027,0.016  c-0.062,0.023-0.114,0.064-0.171,0.099c-0.058,0.036-0.118,0.065-0.166,0.11c-0.008,0.008-0.019,0.01-0.026,0.018l-0.115,0.115  l-0.115,0.092c-0.003,0.003-0.004,0.006-0.007,0.008c-0.003,0.003-0.006,0.003-0.009,0.006l-0.188,0.156l-0.188,0.156l-0.375,0.312  c-0.013,0.01-0.018,0.025-0.029,0.035c-0.011,0.011-0.026,0.015-0.037,0.025l-0.188,0.188c-0.011,0.012-0.015,0.025-0.025,0.037  s-0.025,0.018-0.036,0.029l-0.156,0.188c-0.016,0.02-0.02,0.043-0.033,0.062c-0.014,0.019-0.034,0.029-0.046,0.049l-0.096,0.152  l-0.014,0.014c-0.008,0.008-0.01,0.018-0.017,0.025c-0.046,0.048-0.075,0.109-0.111,0.167c-0.035,0.058-0.076,0.11-0.099,0.173  c-0.003,0.009-0.012,0.016-0.015,0.025l-0.062,0.188c-0.004,0.013-0.001,0.025-0.005,0.038s-0.014,0.022-0.017,0.036l-0.012,0.045  L56.8,14.816c-0.015,0.033-0.011,0.068-0.021,0.102c-0.011,0.034-0.033,0.061-0.04,0.097l-0.022,0.11l-0.053,0.186  c-0.007,0.023-0.001,0.047-0.006,0.069s-0.02,0.041-0.022,0.064l-0.031,0.219l-0.031,0.219c-0.004,0.024,0.006,0.048,0.004,0.073  c-0.002,0.023-0.014,0.044-0.014,0.068v0.22l-0.023,0.188c-0.003,0.021,0.006,0.041,0.005,0.062  c-0.002,0.022-0.013,0.041-0.013,0.062v0.625c0,0.008,0.004,0.014,0.004,0.021c0.001,0.008-0.003,0.014-0.003,0.021l0.031,0.719  c0,0.006,0.004,0.012,0.004,0.018c0.001,0.006-0.002,0.01-0.002,0.016l0.062,0.812c0.001,0.012,0.008,0.021,0.009,0.032  c0.001,0.01-0.003,0.019-0.002,0.028l0.125,0.906c0,0,0,0,0,0.001s0,0.003,0,0.004l0.188,1.312c0.002,0.013,0.01,0.022,0.012,0.034  c0.002,0.01-0.002,0.02,0,0.03l0.121,0.577l0.081,0.509l0.028,0.458l0.025,0.412l-0.021,0.196c-0.002,0.02,0.006,0.037,0.005,0.056  c-0.001,0.02-0.011,0.035-0.011,0.055v0.25v0.161l-0.009,0.083l-0.035,0.08c-0.019,0.045-0.016,0.09-0.028,0.135  c-0.013,0.047-0.039,0.086-0.045,0.136l-0.017,0.132l-0.053,0.141c-0.005,0.014-0.002,0.027-0.007,0.04  c-0.004,0.014-0.015,0.022-0.019,0.036l-0.021,0.07l-0.037,0.057c-0.012,0.018-0.013,0.039-0.023,0.059  c-0.011,0.018-0.029,0.029-0.039,0.049l-0.114,0.229l-0.078,0.137l-0.15,0.201c-0.013,0.018-0.016,0.038-0.027,0.057  c-0.012,0.018-0.03,0.027-0.041,0.047l-0.091,0.158l-0.148,0.191l-0.167,0.191l-0.196,0.172c-0.009,0.008-0.012,0.018-0.021,0.025  c-0.009,0.009-0.02,0.012-0.028,0.02l-0.2,0.2L55.3,26.718c-0.007,0.007-0.009,0.015-0.016,0.021s-0.016,0.009-0.022,0.015  l-0.227,0.227l-0.279,0.203c-0.002,0.002-0.003,0.004-0.005,0.006s-0.005,0.002-0.007,0.003l-0.194,0.146l-0.223,0.124  c-0.008,0.005-0.012,0.012-0.019,0.017c-0.009,0.004-0.019,0.004-0.026,0.01l-0.193,0.12l-0.153,0.068l-0.254,0.076  c-0.015,0.005-0.025,0.017-0.04,0.021s-0.029,0.002-0.044,0.008l-0.261,0.104l-0.239,0.064l-0.324,0.055  c-0.003,0-0.004,0.002-0.007,0.002c-0.003,0.001-0.005,0-0.008,0l-0.344,0.062l-0.296,0.055l-0.321,0.026l-0.406,0.031  c-0.014,0.001-0.024,0.009-0.037,0.011s-0.024-0.004-0.038-0.002l-0.33,0.051h-0.299h-0.375h-0.33l-0.33-0.051  c-0.013-0.002-0.024,0.004-0.037,0.002c-0.014-0.002-0.024-0.01-0.038-0.011l-0.406-0.031l-0.364-0.028l-0.33-0.055  c-0.002,0-0.004,0-0.006,0s-0.004-0.002-0.006-0.002l-0.406-0.062l-0.36-0.056l-0.331-0.083l-0.375-0.094  c-0.016-0.004-0.031,0.002-0.047-0.002c-0.016-0.003-0.027-0.014-0.043-0.016l-0.309-0.047l-0.252-0.092l-0.344-0.125  c-0.014-0.006-0.028-0.002-0.042-0.007s-0.023-0.015-0.037-0.019l-0.314-0.086l-0.283-0.094l-0.249-0.125l-0.312-0.156l-0.249-0.125  l-0.349-0.188l-0.375-0.23l-0.324-0.206l-0.312-0.228c-0.002-0.002-0.006-0.002-0.008-0.004c-0.003-0.002-0.004-0.005-0.007-0.007  l-0.263-0.185l-0.267-0.239c-0.009-0.009-0.021-0.01-0.03-0.018c-0.01-0.009-0.014-0.021-0.024-0.028l-0.235-0.184l-0.191-0.191  l-0.18-0.23l-0.219-0.281c-0.001-0.002-0.003-0.002-0.004-0.004c-0.002-0.002-0.002-0.005-0.004-0.008l-0.225-0.28l-0.148-0.223  l-0.176-0.293l-0.146-0.242l-0.096-0.239c-0.008-0.02-0.024-0.032-0.033-0.051s-0.008-0.039-0.018-0.057l-0.132-0.241l-0.062-0.231  c-0.004-0.014-0.015-0.023-0.02-0.037c-0.004-0.014-0.001-0.027-0.006-0.041l-0.125-0.344c-0.002-0.005-0.006-0.008-0.008-0.013  s-0.001-0.011-0.003-0.017l-0.089-0.223l-0.035-0.195l-0.028-0.279c-0.002-0.018-0.012-0.031-0.015-0.049  c-0.003-0.016,0.003-0.031,0-0.048l-0.043-0.215v-0.214V20.83l0.046-0.253c0.003-0.015-0.003-0.027-0.001-0.042  c0.003-0.016,0.012-0.029,0.014-0.047l0.029-0.316l0.05-0.33l0.08-0.347l0.119-0.415c0.001-0.004,0-0.008,0.001-0.011  c0-0.003,0.002-0.005,0.003-0.007l0.116-0.438l0.367-1.131l0.148-0.416c0.007-0.02,0.003-0.039,0.009-0.059  c0.007-0.023,0.022-0.043,0.027-0.068l0.09-0.42c0,0,0.001-0.001,0.001-0.002l0.094-0.406c0.006-0.023-0.002-0.047,0.002-0.071  s0.018-0.045,0.02-0.07l0.026-0.315l0.052-0.259c0.007-0.034-0.004-0.065,0-0.099c0.003-0.033,0.02-0.062,0.02-0.098V14.93  c0-0.037-0.018-0.069-0.021-0.105c-0.004-0.038,0.006-0.074-0.002-0.111l-0.062-0.281c-0.002-0.01-0.01-0.018-0.013-0.027  c-0.002-0.011,0.001-0.021-0.002-0.031l-0.062-0.219c-0.004-0.014-0.015-0.022-0.019-0.036c-0.005-0.013-0.002-0.026-0.007-0.04  l-0.093-0.246l-0.052-0.156c-0.015-0.043-0.046-0.074-0.065-0.114s-0.024-0.085-0.051-0.124l-0.125-0.188  c-0.008-0.013-0.021-0.019-0.03-0.03c-0.009-0.013-0.011-0.027-0.021-0.04l-0.041-0.051l-0.04-0.094  c-0.012-0.026-0.034-0.043-0.048-0.068c-0.032-0.061-0.071-0.115-0.116-0.168c-0.043-0.053-0.087-0.099-0.14-0.141  c-0.022-0.018-0.035-0.044-0.061-0.061l-0.066-0.044l-0.22-0.265c-0.009-0.01-0.021-0.014-0.031-0.024l-0.03-0.046  c-0.024-0.036-0.061-0.057-0.088-0.088c-0.045-0.052-0.089-0.101-0.144-0.143c-0.057-0.043-0.116-0.073-0.18-0.104  c-0.036-0.018-0.064-0.047-0.104-0.061l-0.188-0.062l-0.066-0.021l-0.129-0.052c-0.029-0.012-0.061-0.008-0.091-0.017  c-0.029-0.009-0.053-0.029-0.084-0.035L39,11.609l-0.4-0.092c-0.038-0.009-0.074,0.002-0.112-0.003  c-0.039-0.005-0.072-0.022-0.112-0.022h-0.4l-0.403-0.029c-0.023-0.001-0.043,0.01-0.065,0.01c-0.023,0-0.045-0.012-0.068-0.01  l-0.469,0.029H36.5c-0.021,0-0.039,0.011-0.061,0.012c-0.021,0.002-0.041-0.007-0.063-0.004l-0.5,0.062l0,0l-0.549,0.061  c-0.002,0.001-0.004,0.002-0.006,0.002c-0.003,0.001-0.005,0-0.008,0l-1,0.125c-0.008,0.001-0.015,0.006-0.022,0.008  c-0.008,0.001-0.016-0.002-0.023-0.001l-0.906,0.156c-0.002,0-0.003,0.001-0.004,0.001c-0.002,0.001-0.003,0-0.005,0l-0.688,0.125  c-0.011,0.002-0.02,0.01-0.03,0.013s-0.021-0.001-0.033,0.001l-0.735,0.185l-0.704,0.153c-0.021,0.004-0.036,0.019-0.056,0.023  c-0.021,0.006-0.04,0.002-0.06,0.009l-0.689,0.239l-0.731,0.214l0,0l-0.771,0.216c-0.012,0.004-0.021,0.013-0.032,0.017  c-0.013,0.004-0.024,0.001-0.037,0.005l-0.781,0.281c-0.004,0.002-0.007,0.006-0.012,0.008c-0.003,0.001-0.007,0-0.011,0.002  l-1.524,0.591c-0.001,0-0.001,0-0.001,0l-1.562,0.594c-0.002,0.001-0.004,0.003-0.006,0.004s-0.005,0-0.007,0.001l-1.485,0.588  l-1.449,0.524h-0.001l-1.406,0.5c-0.039,0.014-0.065,0.043-0.102,0.062c-0.062,0.029-0.118,0.061-0.171,0.102  c-0.051,0.041-0.094,0.084-0.135,0.132c-0.042,0.049-0.08,0.097-0.112,0.152s-0.056,0.112-0.076,0.173  c-0.021,0.061-0.038,0.119-0.047,0.184c-0.01,0.065-0.009,0.13-0.004,0.197c0.002,0.041-0.011,0.078-0.003,0.119l1.5,8.281  c0,0.002,0.001,0.003,0.001,0.004l0.437,2.461c0,0,0,0,0,0.001l0.372,2.263c0,0.002,0,0.002,0,0.004l0.341,2.106l0,0l0.281,1.969  c0,0.003,0.003,0.006,0.003,0.009c0,0.002,0,0.004,0,0.006l0.276,1.75l0.151,1.607c0,0.002,0,0.002,0,0.004l0.062,0.781  c0.001,0.008,0.006,0.015,0.007,0.023c0,0.007-0.003,0.014-0.002,0.021l0.089,0.709l0.029,0.649c0,0.001,0,0.001,0,0.001  c0,0.001,0,0.001,0,0.001l0.031,0.656c0,0.001,0,0.001,0,0.002c0,0,0,0,0,0.001l0.03,0.605v0.563v0.594v0.469l-0.029,0.464  c0,0.001,0,0.001,0,0.001l-0.031,0.469c0,0.001,0,0.002,0,0.003l-0.025,0.359l-0.079,0.37c-0.001,0.005,0.001,0.01,0,0.016  s-0.005,0.01-0.006,0.015l-0.054,0.294l-0.08,0.297l-0.077,0.256l-0.103,0.256l-0.098,0.221l-0.093,0.162l-0.081,0.129l-0.076,0.076  c-0.005,0.005-0.007,0.012-0.012,0.018c-0.005,0.005-0.011,0.006-0.016,0.012l-0.357,0.387l-0.129,0.129l-0.151,0.113l-0.221,0.139  c-0.009,0.006-0.014,0.016-0.022,0.021s-0.02,0.006-0.028,0.012l-0.219,0.156l-0.138,0.099l-0.127,0.057l-0.254,0.076l-0.312,0.094  l-0.173,0.052h-0.196H20.02l-0.293-0.049c-0.004,0-0.008,0.001-0.012,0c-0.004,0-0.007-0.003-0.011-0.004l-0.337-0.048l-0.344-0.122  c-0.003-0.002-0.007-0.001-0.01-0.002c-0.004-0.002-0.006-0.004-0.01-0.006l-0.451-0.15l-0.381-0.146  c-0.004-0.001-0.008,0-0.013-0.002c-0.004-0.002-0.007-0.005-0.011-0.006l-0.852-0.305l0,0l-0.812-0.312  c-0.016-0.006-0.031-0.003-0.047-0.008c-0.014-0.005-0.023-0.016-0.038-0.02l-0.41-0.117l-0.36-0.121  c-0.028-0.009-0.057-0.003-0.085-0.01c-0.027-0.007-0.05-0.025-0.079-0.029l-0.367-0.057l-0.373-0.086  c-0.038-0.009-0.075,0.002-0.113-0.003s-0.072-0.022-0.111-0.022h-0.344h-0.188h-0.188c-0.069,0-0.131,0.026-0.196,0.039  c-0.042,0.009-0.085,0.01-0.126,0.023h-0.021c-0.028,0-0.053,0.014-0.081,0.016c-0.028,0.003-0.055-0.007-0.083-0.002L13.086,46.1  c-0.026,0.004-0.047,0.021-0.072,0.027c-0.027,0.007-0.054,0.002-0.08,0.01l-0.13,0.044l-0.094,0.019  c-0.058,0.012-0.102,0.045-0.154,0.064c-0.055,0.021-0.112,0.027-0.164,0.059l-0.156,0.094c-0.021,0.012-0.031,0.032-0.05,0.045  c-0.02,0.014-0.042,0.018-0.061,0.031l-0.073,0.059l-0.093,0.047c-0.02,0.01-0.031,0.027-0.05,0.039  c-0.019,0.011-0.04,0.012-0.058,0.023l-0.188,0.125c-0.018,0.012-0.026,0.031-0.044,0.043c-0.016,0.014-0.036,0.016-0.052,0.029  l-0.219,0.188c-0.01,0.01-0.014,0.021-0.023,0.031c-0.011,0.009-0.023,0.012-0.033,0.021l-0.188,0.188l-0.188,0.188L10.73,47.66  l-0.188,0.188c-0.018,0.018-0.023,0.041-0.039,0.06c-0.017,0.019-0.039,0.027-0.054,0.048l-0.17,0.227l-0.164,0.191  c-0.018,0.02-0.021,0.045-0.037,0.066c-0.016,0.02-0.038,0.032-0.052,0.055l-0.139,0.223l-0.14,0.194  c-0.007,0.009-0.007,0.02-0.013,0.028c-0.006,0.01-0.016,0.014-0.021,0.023l-0.312,0.5c-0.013,0.02-0.013,0.043-0.024,0.064  s-0.031,0.035-0.042,0.059l-0.25,0.562c0,0,0,0.001,0,0.002l-0.271,0.57c-0.003,0.006-0.002,0.014-0.005,0.02  c-0.004,0.008-0.011,0.012-0.014,0.02l-0.25,0.594c-0.008,0.018-0.005,0.036-0.011,0.054s-0.021,0.03-0.025,0.048L8.323,52.08  c-0.001,0.002,0,0.004-0.001,0.006c0,0.002-0.002,0.004-0.003,0.006l-0.188,0.656c-0.002,0.007,0,0.014-0.001,0.02  c-0.002,0.005-0.006,0.008-0.007,0.014l-0.156,0.625c-0.002,0.009,0.001,0.018-0.001,0.027c-0.003,0.01-0.01,0.018-0.012,0.027  L7.83,54.117c-0.003,0.018,0.003,0.033,0.001,0.049c-0.003,0.018-0.013,0.031-0.015,0.049l-0.062,0.688L7.691,55.59  c-0.001,0.008,0.003,0.016,0.003,0.023c-0.001,0.008-0.006,0.014-0.006,0.021l-0.031,0.688c-0.001,0.016,0.007,0.03,0.007,0.047  S7.656,56.4,7.657,56.417l0.03,0.605v0.563c0,0.019,0.01,0.034,0.011,0.053c0.001,0.018-0.007,0.033-0.005,0.052l0.06,0.567  l0.03,0.512c0.001,0.01,0.007,0.019,0.008,0.028c0,0.011-0.004,0.02-0.003,0.03l0.062,0.531c0.002,0.018,0.012,0.031,0.015,0.048  c0.003,0.015-0.002,0.029,0.001,0.044l0.083,0.389l0.058,0.488c0.004,0.033,0.021,0.06,0.028,0.092c0.007,0.028,0,0.057,0.009,0.085  l0.119,0.388l0.125,0.438c0.004,0.012,0.013,0.021,0.017,0.034c0.003,0.009,0.001,0.019,0.004,0.026l0.156,0.438l0.156,0.438  c0.004,0.01,0.011,0.018,0.014,0.026c0.003,0.007,0.002,0.015,0.005,0.022l0.156,0.375c0.008,0.018,0.021,0.031,0.03,0.049  c0.006,0.014,0.005,0.027,0.012,0.041l0.215,0.399l0.178,0.354c0.009,0.018,0.022,0.029,0.031,0.045  c0.006,0.01,0.006,0.021,0.012,0.031l0.25,0.406c0.002,0.004,0.006,0.007,0.008,0.011c0.002,0.002,0.002,0.005,0.003,0.007  l0.281,0.438c0.018,0.027,0.041,0.047,0.061,0.072c0.01,0.012,0.012,0.026,0.021,0.037l0.146,0.172l0.155,0.232  c0.051,0.076,0.111,0.143,0.178,0.199c0.002,0.002,0.002,0.004,0.004,0.006l0.135,0.115l0.122,0.162  c0.021,0.029,0.056,0.041,0.079,0.066c0.054,0.057,0.098,0.121,0.166,0.166l0.073,0.049l0.098,0.113  c0.027,0.033,0.067,0.046,0.098,0.074c0.045,0.041,0.078,0.09,0.131,0.123l0.246,0.154l0.167,0.111  c0.046,0.031,0.097,0.046,0.145,0.068c0.021,0.01,0.036,0.027,0.059,0.036l0.144,0.054l0.091,0.061  c0.035,0.023,0.073,0.033,0.11,0.052c0.019,0.01,0.031,0.026,0.051,0.035l0.219,0.094c0.025,0.011,0.052,0.007,0.077,0.017  c0.026,0.008,0.047,0.027,0.074,0.035l0.25,0.062c0.018,0.004,0.035,0.002,0.053,0.006c0.01,0.002,0.016,0.008,0.025,0.01  l0.188,0.031c0.006,0.001,0.011,0,0.017,0.002c0.002,0,0.004,0.001,0.006,0.002l0.181,0.025l0.244,0.055  c0.022,0.004,0.044,0.004,0.066,0.007c0.01,0.001,0.017,0.008,0.026,0.009l0.25,0.031c0.042,0.006,0.083,0.008,0.124,0.008l0,0  h0.281h0.219h0.594c0,0,0,0,0.001,0c0.057,0,0.115-0.005,0.173-0.016l0.494-0.087l0.588-0.059c0.003-0.001,0.005-0.003,0.008-0.003  c0.01,0,0.019,0,0.027-0.002l1.375-0.188c0.002,0,0.004-0.001,0.006-0.002c0.006,0,0.012,0,0.018-0.001l1.559-0.249l0.135-0.02h0.18  H20h0.188h0.188h0.105l0.026,0.004l0.114,0.039c0.015,0.004,0.029,0.002,0.044,0.007c0.012,0.003,0.02,0.011,0.03,0.015l0.125,0.031  c0.018,0.004,0.035,0.002,0.053,0.006c0.01,0.002,0.016,0.008,0.025,0.01l0.038,0.006l0.104,0.053l0.171,0.095l0.116,0.097  c0.011,0.01,0.024,0.012,0.036,0.021c0.009,0.007,0.014,0.018,0.023,0.025l0.152,0.108l0.093,0.093l0.09,0.107l0.117,0.188  c0.003,0.006,0.008,0.009,0.011,0.014c0.003,0.004,0.003,0.008,0.005,0.012l0.09,0.135l0.066,0.133  c0.005,0.011,0.014,0.018,0.02,0.028c0.004,0.007,0.003,0.014,0.007,0.021l0.25,0.438c0.002,0.004,0.006,0.006,0.008,0.01  c0.002,0.003,0.001,0.006,0.003,0.009l0.188,0.312l0.159,0.266l0.132,0.29c0.003,0.006,0.008,0.011,0.012,0.018  c0.002,0.004,0.001,0.01,0.004,0.016l0.052,0.104l0.022,0.08l0.021,0.127c0.008,0.048,0.033,0.086,0.047,0.131  c0.01,0.033,0.007,0.066,0.021,0.1l0.038,0.088l0.014,0.11c0.002,0.017,0.012,0.03,0.015,0.046s-0.003,0.031,0.001,0.047  l0.039,0.176v0.201c0,0.016,0.008,0.029,0.009,0.045s-0.007,0.029-0.005,0.045l0.027,0.301v0.328v1.062v0.589l-0.023,0.282  l-0.057,0.34c-0.002,0.014,0.003,0.027,0.002,0.041c-0.002,0.015-0.011,0.025-0.012,0.04l-0.031,0.375  c0,0.002,0.001,0.004,0.001,0.006c-0.001,0.002-0.002,0.004-0.002,0.006l-0.026,0.367l-0.111,0.529c-0.001,0.003,0.001,0.007,0,0.01  s-0.003,0.006-0.004,0.009l-0.121,0.637l-0.147,0.59c-0.001,0.002,0,0.006,0,0.008c-0.002,0.005-0.005,0.008-0.006,0.013  l-0.154,0.68l-0.336,1.251c-0.001,0.004,0,0.008-0.001,0.012s-0.003,0.006-0.004,0.009l-1.531,6.219  c-0.017,0.069-0.007,0.136-0.009,0.204c-0.002,0.062-0.017,0.125-0.008,0.185c0.011,0.069,0.044,0.131,0.068,0.196  c0.021,0.055,0.03,0.113,0.061,0.164c0.034,0.058,0.087,0.101,0.132,0.15c0.041,0.045,0.073,0.098,0.123,0.136  c0.054,0.041,0.123,0.062,0.186,0.091c0.056,0.026,0.103,0.064,0.164,0.08l0.015,0.004l0,0l0,0l2.485,0.652h0.001l2.678,0.717l0,0  l1.375,0.375c0.004,0.001,0.009,0,0.013,0.002c0.003,0,0.005,0.003,0.008,0.004l1.375,0.344c0.001,0,0.002,0,0.002,0  c0.001,0,0.002,0.001,0.003,0.001l1.281,0.312c0.01,0.003,0.019,0.001,0.028,0.003c0.004,0.002,0.008,0.005,0.013,0.006l0.625,0.125  c0.012,0.002,0.022,0.002,0.034,0.004c0.005,0,0.009,0.004,0.014,0.004l0.6,0.09l0.603,0.121c0.014,0.002,0.026,0.002,0.04,0.004  c0.005,0.001,0.009,0.004,0.015,0.006l0.656,0.094c0.015,0.002,0.029,0.001,0.044,0.003c0.004,0,0.007,0.003,0.011,0.003  l0.694,0.061l0.701,0.092c0.024,0.003,0.049,0.003,0.073,0.004c0.004,0,0.007,0.003,0.011,0.003l0.688,0.031  c0.015,0.001,0.029,0.001,0.045,0.001l0,0h0.75h0.688l0,0c0.015,0,0.028,0,0.043-0.001l0.719-0.031c0.002,0,0.003-0.001,0.005-0.001  c0.016-0.001,0.031-0.001,0.047-0.002l0.656-0.062l0.001-0.001c0.001,0,0.003,0,0.004,0l0.625-0.062  c0.009-0.001,0.016-0.007,0.024-0.007c0.024-0.004,0.048-0.003,0.072-0.008l0.312-0.062c0.003,0,0.004-0.002,0.007-0.003  c0.005-0.001,0.009-0.001,0.014-0.001l0.281-0.062l0.281-0.062c0.021-0.006,0.037-0.02,0.058-0.025  c0.025-0.008,0.052-0.006,0.077-0.015l0.199-0.075l0.191-0.047c0.027-0.008,0.048-0.027,0.074-0.035  c0.025-0.01,0.052-0.006,0.077-0.017l0.219-0.094c0.013-0.005,0.02-0.017,0.031-0.022c0.023-0.01,0.049-0.016,0.071-0.028  l0.191-0.109l0.166-0.083c0.027-0.014,0.044-0.038,0.069-0.054c0.035-0.022,0.075-0.033,0.108-0.06l0.156-0.125l0.156-0.125  c0.016-0.013,0.021-0.031,0.036-0.044s0.032-0.017,0.046-0.03l0.156-0.156c0.009-0.01,0.012-0.021,0.021-0.031  c0.078-0.084,0.146-0.178,0.192-0.289c0.002-0.004,0.006-0.008,0.007-0.013c0.001-0.001,0.002-0.001,0.002-0.003l0.017-0.041  l0.176-0.242c0.012-0.016,0.013-0.034,0.023-0.051c0.02-0.03,0.046-0.057,0.062-0.09l0.177-0.354l0.109-0.191  c0.008-0.014,0.007-0.029,0.015-0.043c0.011-0.021,0.026-0.037,0.036-0.059l0.094-0.219c0.003-0.007,0.001-0.014,0.004-0.02  c0.004-0.009,0.011-0.016,0.014-0.023l0.088-0.234l0.082-0.191c0.011-0.025,0.008-0.051,0.016-0.076  c0.013-0.035,0.034-0.064,0.042-0.102l0.062-0.281c0.001-0.004-0.001-0.008,0-0.012c0.001-0.003,0.003-0.006,0.004-0.009  l0.062-0.312l0.062-0.312c0.003-0.017-0.002-0.03,0-0.047c0.003-0.018,0.013-0.032,0.015-0.05l0.031-0.312  c0.002-0.018-0.006-0.033-0.005-0.051c0.001-0.017,0.01-0.031,0.01-0.049V82.68c0-0.014-0.007-0.025-0.008-0.038  c0-0.014,0.006-0.024,0.005-0.038l-0.028-0.369v-0.398c0-0.035-0.017-0.064-0.02-0.098c-0.004-0.033,0.007-0.064,0-0.099  l-0.084-0.419l-0.089-0.891c-0.001-0.006-0.004-0.011-0.005-0.017c-0.001-0.005,0.002-0.011,0.001-0.017l-0.058-0.432l-0.029-0.439  l-0.029-0.439v-0.369c0-0.024-0.012-0.045-0.014-0.068c-0.002-0.025,0.008-0.049,0.004-0.073L43,78.106v-0.291l0.053-0.369  c0.002-0.013-0.004-0.024-0.002-0.037c0.001-0.012,0.008-0.021,0.009-0.033l0.031-0.438l0.026-0.321l0.061-0.421c0,0,0,0,0-0.001  l0.059-0.352c0-0.002-0.001-0.004,0-0.006c0-0.002,0.002-0.004,0.002-0.006l0.054-0.349l0.079-0.29c0.001-0.004,0-0.008,0.001-0.012  s0.003-0.006,0.004-0.01l0.094-0.375l0.071-0.286l0.119-0.261c0.005-0.011,0.003-0.022,0.008-0.033  c0.006-0.014,0.017-0.024,0.021-0.039l0.092-0.252l0.139-0.231c0.006-0.009,0.005-0.02,0.01-0.028  c0.008-0.014,0.02-0.024,0.027-0.039l0.124-0.248l0.176-0.251c0.005-0.007,0.006-0.017,0.011-0.024  c0.008-0.012,0.02-0.021,0.027-0.034l0.158-0.263l0.171-0.221h0.001l0.25-0.312c0.002-0.003,0.002-0.006,0.004-0.008  c0.001-0.002,0.003-0.002,0.004-0.004l0.141-0.18l0.185-0.145c0.018-0.014,0.025-0.033,0.042-0.049  c0.016-0.014,0.036-0.018,0.051-0.033l0.24-0.24l0.248-0.199l0.255-0.178l0.283-0.17c0.003-0.002,0.005-0.005,0.008-0.007  c0.005-0.003,0.01-0.004,0.015-0.007l0.266-0.169l0.041-0.017l0.16-0.053c0.02-0.007,0.032-0.021,0.051-0.029  c0.017-0.007,0.035-0.004,0.052-0.012l0.322-0.148l0.393-0.099c0.001,0,0.001,0,0.002,0l0.525-0.124l0.598-0.119l0.575-0.115  l0.578-0.058l0.61-0.062l0.827-0.059H52h0.324l0.264,0.026c0.034,0.003,0.066,0.005,0.1,0.005l0,0h0.197l0.169,0.019l0.229,0.052  l0.229,0.051l0.234,0.078c0.015,0.004,0.029,0.002,0.044,0.007c0.012,0.003,0.02,0.011,0.03,0.015l0.211,0.053l0.203,0.067  l0.234,0.104l0.549,0.244h0.001l0.38,0.176l0.311,0.169c0.007,0.003,0.014,0.005,0.021,0.008c0.004,0.003,0.007,0.007,0.011,0.009  l0.342,0.171l0.278,0.167l0.271,0.163l0.17,0.127l0.253,0.226c0.02,0.017,0.043,0.022,0.062,0.037  c0.019,0.014,0.027,0.034,0.047,0.047l0.199,0.133l0.18,0.18c0.018,0.018,0.042,0.023,0.061,0.04  c0.018,0.016,0.027,0.038,0.047,0.053l0.191,0.144l0.176,0.176l0.12,0.141l0.155,0.232c0.016,0.023,0.037,0.041,0.055,0.063  c0.008,0.01,0.01,0.022,0.019,0.032l0.12,0.141l0.108,0.195c0.006,0.01,0.014,0.016,0.02,0.025c0.004,0.006,0.003,0.013,0.007,0.018  l0.156,0.25l0.106,0.172l0.094,0.232c0.01,0.025,0.028,0.044,0.04,0.068c0.007,0.015,0.006,0.031,0.015,0.047l0.08,0.145  l0.032,0.159c0.009,0.043,0.032,0.077,0.046,0.117c0.01,0.03,0.007,0.062,0.021,0.093l0.095,0.213l0.064,0.238l0.046,0.227  l0.026,0.266c0.003,0.03,0.02,0.055,0.025,0.084c0.005,0.027-0.002,0.053,0.005,0.08l0.059,0.215v0.24  c0,0.016,0.008,0.027,0.009,0.043c0,0.014-0.006,0.025-0.005,0.04l0.031,0.375c0.002,0.018,0.012,0.031,0.014,0.049  c0.002,0.016-0.004,0.03-0.001,0.047l0.046,0.253v0.245l-0.053,0.369c-0.004,0.024,0.006,0.048,0.004,0.073  c-0.002,0.023-0.014,0.044-0.014,0.068v0.345l-0.026,0.368l0,0l-0.021,0.217l-0.066,0.221c-0.005,0.016,0,0.031-0.004,0.047  s-0.016,0.027-0.019,0.044l-0.044,0.221l-0.077,0.192l-0.137,0.273l-0.148,0.296l-0.3,0.54l0,0l-0.335,0.579  c-0.003,0.006-0.003,0.013-0.006,0.019c-0.004,0.006-0.01,0.009-0.013,0.015l-0.274,0.519l-0.116,0.203  c-0.005,0.008-0.004,0.018-0.009,0.026s-0.013,0.014-0.018,0.022l-0.094,0.188c-0.005,0.01-0.004,0.02-0.008,0.029  s-0.013,0.015-0.017,0.023l-0.094,0.219c-0.011,0.026-0.008,0.053-0.017,0.079s-0.027,0.046-0.034,0.073l-0.031,0.125l-0.062,0.25  c-0.003,0.013,0.001,0.025-0.002,0.039s-0.013,0.024-0.015,0.039l-0.031,0.188c-0.005,0.027,0.005,0.055,0.003,0.082  c-0.003,0.029-0.017,0.053-0.017,0.082v0.25v0.188c0,0.029,0.014,0.053,0.017,0.082c0.002,0.027-0.008,0.055-0.003,0.082  l0.018,0.105v0.105c0,0.047,0.021,0.088,0.027,0.134c0.006,0.048-0.003,0.094,0.011,0.142l0.053,0.186l0.022,0.11  c0.021,0.103,0.062,0.193,0.109,0.28c0.007,0.012,0.007,0.025,0.014,0.038l0.004,0.007c0,0,0.001,0.001,0.001,0.002l0.033,0.055  l0.027,0.082c0.003,0.01,0.011,0.018,0.015,0.027c0.003,0.01,0.001,0.02,0.005,0.027l0.062,0.156  c0.013,0.033,0.035,0.058,0.052,0.088c0.009,0.018,0.009,0.038,0.02,0.056l0.094,0.156l0.094,0.156  c0.012,0.021,0.029,0.034,0.042,0.053c0.007,0.011,0.008,0.022,0.016,0.032l0.094,0.125c0.003,0.004,0.008,0.006,0.011,0.01  c0.004,0.004,0.004,0.01,0.008,0.016l0.125,0.156c0.023,0.029,0.059,0.041,0.085,0.066c0.034,0.035,0.057,0.078,0.097,0.108  l0.038,0.028l0.152,0.174c0.014,0.017,0.034,0.021,0.05,0.037s0.021,0.037,0.039,0.053l0.281,0.25  c0.025,0.022,0.058,0.031,0.086,0.051c0.023,0.018,0.038,0.043,0.063,0.059l0.312,0.188l0.312,0.188  c0.014,0.008,0.029,0.012,0.044,0.019c0.009,0.005,0.014,0.014,0.023,0.019l0.312,0.156c0.008,0.004,0.016,0.005,0.023,0.008  c0.004,0.002,0.006,0.006,0.01,0.008l0.344,0.156c0.007,0.004,0.015,0.002,0.021,0.005c0.009,0.003,0.014,0.011,0.021,0.014  l0.312,0.125c0.037,0.015,0.076,0.012,0.113,0.022c0.033,0.008,0.06,0.029,0.094,0.035l0.286,0.048l0.354,0.126  c0.031,0.012,0.063,0.01,0.095,0.018c0.024,0.006,0.043,0.021,0.067,0.025l0.531,0.094c0.015,0.003,0.028,0.002,0.043,0.004  c0.005,0.001,0.009,0.004,0.014,0.005l0.531,0.062c0.003,0.001,0.007,0,0.01,0.001c0.001,0,0.002,0,0.003,0l0.594,0.062  c0.035,0.004,0.069,0.006,0.104,0.006l0,0h0.656h0.688l0,0c0.045,0,0.09-0.003,0.135-0.01l0.684-0.093l0.796-0.092l0.812-0.094  c0.004-0.001,0.007-0.003,0.011-0.004c0.014-0.001,0.026-0.001,0.039-0.003l0.938-0.156c0.002,0,0.003-0.002,0.005-0.002  c0.006-0.001,0.011,0,0.016-0.002l1-0.188c0.005,0,0.009-0.004,0.015-0.006c0.01-0.002,0.02,0,0.03-0.003l1.062-0.25  c0.001-0.001,0.002-0.001,0.003-0.001c0.002-0.001,0.003,0,0.004-0.001l1.156-0.281c0.002-0.001,0.003-0.001,0.004-0.002  c0.003-0.001,0.005-0.001,0.008-0.001l1.207-0.31l1.36-0.31c0.006-0.001,0.01-0.005,0.015-0.006  c0.009-0.002,0.018-0.002,0.026-0.004l1.375-0.375l0,0c0.001,0,0.002,0,0.003,0l5.562-1.531c0.066-0.019,0.117-0.06,0.177-0.09  c0.058-0.029,0.122-0.048,0.172-0.087c0.045-0.036,0.074-0.085,0.112-0.128c0.049-0.053,0.104-0.1,0.139-0.162  c0.025-0.043,0.031-0.094,0.05-0.139c0.028-0.074,0.063-0.145,0.074-0.224c0.008-0.053-0.008-0.108-0.009-0.162  c-0.002-0.075,0.007-0.149-0.013-0.226l-4.208-16.146l-0.709-3.914l-0.089-0.771c-0.001-0.007-0.006-0.013-0.007-0.02  c-0.001-0.008,0.002-0.016,0.001-0.023l-0.125-0.781c0-0.001-0.001-0.002-0.001-0.003s0-0.003,0-0.003l-0.118-0.711l-0.058-0.633  l-0.03-0.662c0-0.01-0.006-0.018-0.007-0.025c-0.001-0.011,0.004-0.02,0.003-0.029l-0.058-0.576V58.93v-0.505l0.057-0.51  c0.001-0.007-0.003-0.014-0.002-0.021s0.005-0.012,0.005-0.019l0.029-0.405l0.049-0.391l0.095-0.311l0.113-0.311  c0.004-0.01,0.001-0.02,0.004-0.029c0.005-0.014,0.015-0.023,0.019-0.037l0.062-0.219c0.001-0.004,0-0.006,0.001-0.01  c0.016-0.021,0.036-0.039,0.051-0.063l0.094-0.156c0.006-0.009,0.005-0.02,0.01-0.028c0.002-0.003,0.004-0.005,0.005-0.008  l0.022-0.021c0.012-0.012,0.016-0.027,0.026-0.04c0.011-0.011,0.025-0.015,0.035-0.026l0.286-0.344l0.152-0.152  c0.009-0.008,0.011-0.02,0.019-0.028c0.009-0.009,0.02-0.011,0.027-0.021l0.175-0.199l0.16-0.137l0.143-0.123l0.192-0.106  c0.01-0.005,0.015-0.015,0.024-0.021c0.015-0.01,0.031-0.012,0.045-0.021l0.229-0.152l0.206-0.104l0.29-0.105l0.315-0.114  l0.298-0.085l0.335-0.023l0,0l0.46-0.029h0.443l0.562,0.029h0.001l0.474,0.027l0.446,0.104c0.001,0,0.001,0,0.002,0l0.485,0.122  c0.002,0,0.005,0,0.007,0c0.003,0.001,0.004,0.002,0.006,0.003l0.507,0.119l0.366,0.112c0.017,0.006,0.033,0.004,0.05,0.008  c0.013,0.004,0.021,0.013,0.034,0.016l0.401,0.086l0.765,0.234c0.03,0.01,0.06,0.008,0.09,0.014c0.019,0.004,0.033,0.017,0.052,0.02  l0.351,0.054l0.289,0.079c0.024,0.007,0.049,0.005,0.073,0.01c0.014,0.003,0.023,0.012,0.037,0.014l0.406,0.062  c0.051,0.008,0.102,0.012,0.151,0.012c0.001,0,0.001,0,0.001,0h0.344h0.188h0.156c0,0,0,0,0.001,0c0.046,0,0.093-0.004,0.141-0.01  l0.219-0.031c0.002-0.001,0.004-0.002,0.006-0.002c0.006-0.002,0.011-0.001,0.017-0.002l0.188-0.031  c0.021-0.004,0.037-0.018,0.059-0.022c0.031-0.007,0.062-0.005,0.094-0.015l0.114-0.039l0.108-0.018  c0.021-0.004,0.037-0.018,0.059-0.022c0.031-0.007,0.062-0.005,0.094-0.015l0.188-0.062c0.015-0.006,0.023-0.017,0.037-0.021  c0.014-0.006,0.027-0.004,0.04-0.009l0.219-0.094c0.006-0.003,0.01-0.008,0.016-0.011c0.013-0.006,0.025-0.008,0.038-0.014  l0.312-0.156l0.312-0.156c0.016-0.008,0.024-0.021,0.039-0.03c0.022-0.013,0.047-0.018,0.068-0.032l0.261-0.174l0.246-0.154  c0.012-0.007,0.018-0.019,0.028-0.026c0.014-0.009,0.028-0.012,0.041-0.021l0.25-0.188c0.033-0.024,0.051-0.062,0.08-0.089  c0.024-0.023,0.057-0.033,0.079-0.061l0.161-0.188l0.162-0.162l0.188-0.188c0.02-0.02,0.026-0.046,0.045-0.066  c0.014-0.018,0.035-0.023,0.048-0.041l0.188-0.25c0.014-0.018,0.016-0.039,0.028-0.059c0.031-0.048,0.067-0.092,0.091-0.146  l0.058-0.135l0.074-0.111c0.009-0.014,0.009-0.029,0.018-0.043c0.014-0.022,0.033-0.04,0.045-0.064l0.125-0.25  c0.012-0.023,0.01-0.048,0.02-0.071c0.015-0.035,0.037-0.063,0.048-0.101l0.062-0.216l0.081-0.243c0.002-0.006,0-0.012,0.002-0.018  c0.003-0.008,0.009-0.016,0.012-0.023l0.062-0.219c0.003-0.01,0-0.02,0.002-0.028c0.003-0.011,0.011-0.019,0.013-0.03l0.062-0.281  c0.004-0.016-0.002-0.031,0.001-0.047s0.013-0.029,0.015-0.046l0.031-0.25c0-0.002-0.001-0.004,0-0.006  c0-0.003,0.002-0.005,0.002-0.008l0.031-0.281c0.001-0.011-0.003-0.019-0.003-0.028c0.001-0.01,0.007-0.018,0.007-0.026l0.031-0.562  l0.031-0.562c0.001-0.009-0.004-0.018-0.004-0.026c0-0.011,0.006-0.02,0.006-0.029v-0.625c0-0.004-0.002-0.008-0.002-0.012  s0.002-0.008,0.002-0.014L92.656,46.967z"/><text x="0" y="115" fill="#000000" font-size="5px" font-weight="bold" font-family="'Helvetica Neue', Helvetica, Arial-Unicode, Arial, Sans-serif">Created by ilCactusBlu</text><text x="0" y="120" fill="#000000" font-size="5px" font-weight="bold" font-family="'Helvetica Neue', Helvetica, Arial-Unicode, Arial, Sans-serif">from the Noun Project</text></svg>