<svg id="Capa_1" data-name="Capa 1" xmlns="http://www.w3.org/2000/svg" viewBox="0 0 96.1 96.1"><defs><style>.cls-1{fill:#fdfefd;}.cls-2{fill:#52b329;}.cls-3{fill:#275414;}.cls-4{fill:#479a26;}.cls-5{fill:#275713;}.cls-6{fill:#265513;}.cls-7{fill:#255212;}.cls-8{fill:#265412;}</style></defs><title>recycling_bin_empty_18866-1</title><path class="cls-1" d="M1008.75,540.75c0,15.25,0,30.5,0,45.75,0,1.88-.42,2.3-2.3,2.3q-45.75-.1-91.5,0c-1.87,0-2.3-.42-2.3-2.3q.1-45.75,0-91.5c0-1.87.42-2.3,2.3-2.3q45.75.1,91.5,0c1.87,0,2.31.42,2.3,2.3C1008.71,510.25,1008.75,525.5,1008.75,540.75ZM984.1,558.91l.35-.85,7.44-46.53c.88-1.82-.15-2.9-1.61-3.56a25.81,25.81,0,0,0-4.91-1.7c-12.26-2.77-24.69-2.75-37.14-1.87a58.2,58.2,0,0,0-15.37,2.74c-1.85.65-4.38,1.19-3.49,4.27,1.83,11.69,3.62,23.4,5.52,35.08,1.56,9.59,3.24,19.16,4.86,28.74.18,2.26-.48,4.75,2.52,5.94,12.23,4.85,24.42,5.21,36.66.06a3.33,3.33,0,0,0,2.33-2.93c.9-6.52,1.93-13,2.91-19.53Z" transform="translate(-912.7 -492.7)"/><path class="cls-2" d="M991.89,511.53l-7.44,46.53-.35.85.09-.12c-3.56,4.23-6.67,8.84-11.42,12-10.33,6.87-21.32,8-33,4.45-1.63-9.58-3.31-19.15-4.86-28.74-1.9-11.68-3.68-23.39-5.52-35.08a23.94,23.94,0,0,0,6.24,2.4c11.14,2.86,22.49,2.33,33.79,2.12C977.12,515.81,984.78,515,991.89,511.53Zm-21.08,45c-1,0-1.7,0-2.45,0-1.85,0-3.55-.28-4.62,2a5,5,0,0,0,.52,5.51c1.54,2.21,7.76,1.13,9.29-1.82.88-1.7,3.28-3.33,2.29-5.11C975,555.63,972.39,556.85,970.81,556.54Zm-6.8-24c-1.08.33-2.9-.78-3.57.65-.58,1.24.85,2.46,1.45,3.66.74,1.44,2.05,2.77,2.27,4.26.57,3.92,3.43,1.86,4.79,1.62a4.08,4.08,0,0,0,3.11-4.79C971.39,534.68,967.79,532.54,964,532.53ZM946.19,557.2c2.4,7.31,4.32,8.47,11.13,7.59,2.69-.34,2-2.19,1.9-3.61s1.09-3.88-1.86-4C953.67,557.12,950,557.2,946.19,557.2Zm28.67-2.15c2.58-.06,3.92-1.24,3.92-3.45s-3.06-7.39-4.48-7.07c-2.24.51-4.81,1.22-5.25,3.9C968.68,550.73,972.83,555.09,974.86,555.05ZM959.29,537a4,4,0,0,0-4.33-3.71c-1.71.09-5.78,4.89-5.46,6.82.47,2.8,3.36,3,5.28,4.09C955.6,544.65,959.32,538.66,959.29,537ZM946,545.27c-2.15.75-2.17,3.7-2.47,6.17s1.21,3.63,3.67,3.61c1.76,0,5.63-3.4,5.71-5.06C953,547.71,950.05,545.25,946,545.27Z" transform="translate(-912.7 -492.7)"/><path class="cls-3" d="M991.89,511.53c-7.11,3.42-14.77,4.28-22.49,4.42-11.31.21-22.66.73-33.79-2.12a23.94,23.94,0,0,1-6.24-2.4c-.89-3.09,1.64-3.62,3.49-4.27a58.2,58.2,0,0,1,15.37-2.74c12.45-.88,24.87-.9,37.14,1.87a25.81,25.81,0,0,1,4.91,1.7C991.74,508.64,992.77,509.71,991.89,511.53Z" transform="translate(-912.7 -492.7)"/><path class="cls-4" d="M939.76,575.25c11.68,3.57,22.68,2.42,33-4.45,4.76-3.17,7.86-7.77,11.42-12-1,6.51-2,13-2.91,19.53a3.33,3.33,0,0,1-2.33,2.93c-12.24,5.15-24.43,4.79-36.66-.06C939.27,580,939.94,577.51,939.76,575.25Z" transform="translate(-912.7 -492.7)"/><path class="cls-4" d="M984.1,558.91l.35-.85Z" transform="translate(-912.7 -492.7)"/><path class="cls-5" d="M970.81,556.54c1.58.31,4.19-.9,5,.59,1,1.77-1.41,3.41-2.29,5.11-1.53,3-7.75,4-9.29,1.82a5,5,0,0,1-.52-5.51c1.07-2.3,2.77-2.06,4.62-2C969.11,556.55,969.85,556.54,970.81,556.54Z" transform="translate(-912.7 -492.7)"/><path class="cls-6" d="M964,532.53c3.77,0,7.37,2.15,8.06,5.4a4.08,4.08,0,0,1-3.11,4.79c-1.36.24-4.22,2.3-4.79-1.62-.22-1.5-1.53-2.82-2.27-4.26-.61-1.19-2-2.42-1.45-3.66C961.12,531.75,962.94,532.86,964,532.53Z" transform="translate(-912.7 -492.7)"/><path class="cls-7" d="M946.19,557.2c3.8,0,7.49-.08,11.17,0,3,.09,1.8,2.48,1.86,4s.79,3.26-1.9,3.61C950.5,565.67,948.58,564.51,946.19,557.2Z" transform="translate(-912.7 -492.7)"/><path class="cls-6" d="M974.86,555.05c-2,0-6.18-4.32-5.8-6.61.44-2.68,3-3.39,5.25-3.9,1.41-.32,4.47,4.72,4.48,7.07S977.43,555,974.86,555.05Z" transform="translate(-912.7 -492.7)"/><path class="cls-6" d="M959.29,537c0,1.69-3.69,7.68-4.51,7.21-1.93-1.12-4.82-1.29-5.28-4.09-.32-1.94,3.75-6.74,5.46-6.82A4,4,0,0,1,959.29,537Z" transform="translate(-912.7 -492.7)"/><path class="cls-8" d="M946,545.27c4.07,0,7,2.44,6.91,4.72-.09,1.66-4,5-5.71,5.06-2.46,0-4-1.22-3.67-3.61S943.83,546,946,545.27Z" transform="translate(-912.7 -492.7)"/></svg>